<svg width="30" height="31" viewBox="0 0 30 31" fill="none" xmlns="http://www.w3.org/2000/svg">
<g id="Group">
<path id="Vector" fill-rule="evenodd" clip-rule="evenodd" d="M10.8783 0.44751C9.24055 0.448718 7.91509 1.77515 7.9163 3.40963C7.91509 5.04411 9.24176 6.37054 10.8795 6.37175H13.8427V3.41084C13.8439 1.77636 12.5173 0.449926 10.8783 0.44751C10.8795 0.44751 10.8795 0.44751 10.8783 0.44751V0.44751ZM10.8783 8.34811H2.97884C1.34108 8.34932 0.0144178 9.67575 0.0156283 11.3102C0.0132074 12.9447 1.33987 14.2711 2.97763 14.2736H10.8783C12.5161 14.2724 13.8427 12.9459 13.8415 11.3114C13.8427 9.67575 12.5161 8.34932 10.8783 8.34811Z" fill="#C4C4C4"/>
<path id="Vector_2" fill-rule="evenodd" clip-rule="evenodd" d="M29.6427 11.3101C29.6439 9.67563 28.3172 8.3492 26.6795 8.34799C25.0417 8.3492 23.715 9.67563 23.7162 11.3101V14.2734H26.6795C28.3172 14.2722 29.6439 12.9458 29.6427 11.3101ZM21.742 11.3101V3.40951C21.7432 1.77623 20.4177 0.449804 18.78 0.447388C17.1422 0.448596 15.8156 1.77503 15.8168 3.40951V11.3101C15.8144 12.9446 17.141 14.271 18.7788 14.2734C20.4165 14.2722 21.7432 12.9458 21.742 11.3101Z" fill="#C4C4C4"/>
<path id="Vector_3" fill-rule="evenodd" clip-rule="evenodd" d="M18.78 30.0746C20.4177 30.0734 21.7444 28.7469 21.7432 27.1125C21.7444 25.478 20.4177 24.1515 18.78 24.1503H15.8168V27.1125C15.8156 28.7457 17.1422 30.0722 18.78 30.0746ZM18.78 22.1728H26.6807C28.3184 22.1716 29.6451 20.8451 29.6439 19.2106C29.6463 17.5762 28.3196 16.2497 26.6819 16.2473H18.7812C17.1434 16.2485 15.8168 17.575 15.818 19.2094C15.8168 20.8451 17.1422 22.1716 18.78 22.1728Z" fill="#C4C4C4"/>
<path id="Vector_4" fill-rule="evenodd" clip-rule="evenodd" d="M0.0156258 19.2107C0.0144154 20.8451 1.34108 22.1716 2.97883 22.1728C4.61659 22.1716 5.94325 20.8451 5.94204 19.2107V16.2485H2.97883C1.34108 16.2497 0.0144154 17.5762 0.0156258 19.2107ZM7.9163 19.2107V27.1113C7.91388 28.7457 9.24055 30.0722 10.8783 30.0746C12.5161 30.0734 13.8427 28.747 13.8415 27.1125V19.2131C13.8439 17.5786 12.5173 16.2522 10.8795 16.2497C9.24055 16.2497 7.91509 17.5762 7.9163 19.2107C7.9163 19.2119 7.9163 19.2107 7.9163 19.2107Z" fill="#C4C4C4"/>
</g>
</svg>
